<svg xmlns="http://www.w3.org/2000/svg" width="126.621" height="131.345" viewBox="0 0 126.621 131.345">
  <path id="Path_2717" data-name="Path 2717" d="M-596.07,182.71V314.055h43.741v-4.816H-591.4V187.221h117.263V309.188h-55.717c-1.129,0-2.255,0-3.384-.035l-.049-14.353c-.016-4.7-.314-9.384-.235-14.081.007-.386.582-4.99.936-4.828,28.719,13.133,50.31-10.1,51.062-26.57q-32.943-7.819-53,19.4c-19.026-16.552-20.921-43.99-11.05-61.1,16.8,11.944,18,33.007,11.73,44.544-3.175-5.837-4.852-11.918-4.227-18.558-1.392,0-4.7.058-4.7.058s0,.758,0,.932a67.15,67.15,0,0,0,.483,8.474,34.418,34.418,0,0,0,5.8,14.118c.94,1.372,2.073,2.616,3.15,3.958,14.885-19.681,7.951-49.563-14.215-60.318-.879,1.539-1.819,3.053-2.637,4.638a52.239,52.239,0,0,0-5.964,20.763,58.266,58.266,0,0,0,1.25,17.537,55.538,55.538,0,0,0,15.881,27.56c1.534,1.463,2.063,2.489,1.316,4.537-.955,2.642-.574,5.482-.488,8.281.2,6.823.183,13.651.234,20.484.02,3.119,0,6.244,0,9.409h68.507V182.71Zm74.614,78.983a40.7,40.7,0,0,1,16.216-8.073,41.2,41.2,0,0,1,11.9-1.285c1.849.112,3.688.479,5.527.747.559.081.452.655.376.909a28.022,28.022,0,0,1-5.258,9.7,29.573,29.573,0,0,1-14.149,9.647,30.212,30.212,0,0,1-21.871-1.209c-.467-.2-.919-.442-1.448-.7A39.249,39.249,0,0,1-521.456,261.693Z" transform="translate(596.07 -182.71)" fill="#609966"/>
</svg>
